 <svg  version="1.0" xmlns="http://www.w3.org/2000/svg"  width="256.000000pt" height="256.000000pt" viewBox="0 0 256.000000 256.000000"  preserveAspectRatio="xMidYMid meet">  <g transform="translate(0.000000,256.000000) scale(0.050000,-0.050000)" fill="#6b5a6e" stroke="none"> <path d="M2590 4757 c-1498 -191 -2691 -1828 -2236 -3067 121 -329 710 -980 1036 -1144 1568 -792 3805 924 3422 2624 -79 349 -517 1047 -783 1249 -382 289 -889 408 -1439 338z m670 -39 c305 -47 633 -206 846 -411 115 -111 371 -488 388 -571 6 -31 20 -50 32 -43 11 7 14 4 7 -8 -7 -11 0 -105 15 -208 247 -1685 -1942 -3311 -3467 -2574 -335 162 -651 566 -749 960 -367 1474 1304 3103 2928 2855z"/> <path d="M2920 4622 l-50 -15 59 -11 c64 -13 111 -2 111 26 0 21 -48 20 -120 0z"/> <path d="M3094 4587 c-52 -27 -111 -46 -130 -43 -19 3 -32 -5 -29 -19 8 -40 -43 -29 -70 15 -31 50 -47 50 -99 2 -22 -21 -62 -43 -88 -48 -27 -4 13 -10 88 -11 90 -2 176 11 259 39 68 23 214 48 324 57 181 14 188 16 67 18 -73 2 -154 11 -180 21 -35 13 -70 5 -142 -31z"/> <path d="M2640 4440 c-1027 -102 -2022 -1083 -2027 -2000 -1 -220 16 -405 46 -490 20 -58 20 -57 10 16 -6 42 -17 91 -24 109 -7 19 -4 26 9 19 27 -17 72 -248 54 -277 -9 -14 -5 -18 9 -9 13 8 23 2 23 -13 0 -16 22 -72 49 -125 27 -53 44 -105 38 -115 -18 -29 250 -279 373 -349 161 -92 399 -166 581 -180 87 -6 159 -17 159 -24 0 -21 -308 -162 -365 -166 -102 -8 -56 -36 65 -39 66 -2 149 -6 185 -8 201 -14 411 63 570 209 36 33 142 88 240 123 1239 454 1951 1747 1469 2668 -77 145 -250 341 -354 397 -434 237 -689 295 -1110 254z m-840 -414 c-49 -29 -139 -90 -200 -134 -60 -45 -121 -79 -135 -76 -14 3 -25 -7 -25 -23 0 -16 -29 -55 -65 -87 -36 -32 -99 -96 -140 -142 -41 -46 -75 -81 -75 -78 0 100 179 364 234 344 13 -4 20 3 15 16 -17 43 191 181 311 207 166 36 178 32 80 -27z m1877 -156 c-79 -79 -733 -362 -796 -344 -111 31 -415 24 -585 -14 -116 -26 -164 -29 -195 -12 -50 26 -55 48 -6 24 38 -18 78 -18 125 0 135 53 512 76 634 39 91 -28 320 38 292 84 -7 10 -3 13 9 6 12 -7 128 40 258 106 213 106 293 140 264 111z m123 -55 c-8 -36 -35 -144 -60 -240 -43 -166 -43 -177 -11 -227 35 -53 -45 -488 -89 -488 -9 0 -14 -16 -11 -35 3 -19 1 -24 -3 -10 -5 14 -17 25 -27 25 -11 0 -20 16 -21 35 -5 84 -34 -75 -36 -196 -8 -547 -450 -1092 -1072 -1322 -80 -29 -86 -34 -30 -25 39 7 102 28 142 47 68 33 74 33 116 -1 88 -71 -533 -207 -672 -147 -20 8 -58 14 -86 12 -34 -1 -24 6 30 24 l80 25 -124 14 c-218 23 -372 100 -497 248 -229 269 -246 381 -90 586 30 39 55 93 56 120 3 48 1 48 -26 12 -15 -21 -22 -48 -15 -60 7 -12 5 -15 -5 -7 -9 9 -51 -18 -93 -59 l-76 -74 0 119 c0 134 19 213 101 429 53 138 106 463 173 1065 14 117 -27 126 357 -75 l325 -170 117 31 c158 44 450 58 597 31 l120 -23 400 199 c458 228 451 226 430 137z m-2100 -63 c0 -14 76 -65 168 -114 238 -124 199 -121 -54 5 -174 86 -283 170 -160 123 23 -9 28 -5 16 14 -11 17 -8 21 7 12 13 -8 23 -26 23 -40z"/> <path d="M3635 3715 c-39 -47 -107 -121 -152 -165 -45 -44 -83 -98 -84 -120 -2 -40 -2 -40 -18 0 -16 38 -18 37 -37 -11 -27 -69 -74 -105 -120 -90 -22 7 0 -27 54 -84 l92 -95 11 100 c12 121 25 144 182 344 68 86 132 167 142 181 52 66 -9 15 -70 -60z"/> <path d="M1544 3363 c-2 -44 -26 -150 -54 -235 -28 -85 -46 -159 -40 -164 5 -6 10 -1 10 11 0 12 27 49 60 82 33 33 60 68 60 78 0 11 20 29 45 41 25 12 34 22 20 23 -14 0 -25 16 -25 35 0 29 -4 29 -31 -5 -18 -22 -26 -28 -19 -14 7 14 4 25 -7 25 -13 0 -13 25 0 70 11 41 12 83 1 102 -12 22 -18 9 -20 -49z"/> <path d="M2389 3272 c-33 -15 -78 -44 -98 -64 -21 -21 -43 -38 -50 -38 -145 0 -283 -308 -234 -522 105 -464 900 -186 900 314 0 115 -75 278 -127 278 -29 0 -25 -35 5 -46 14 -5 20 -14 13 -21 -6 -7 -44 18 -84 57 -118 115 -121 79 -3 -44 76 -79 109 -129 108 -165 -1 -51 -1 -51 -28 9 -22 50 -29 54 -40 26 -8 -19 -9 -44 -1 -56 7 -11 5 -19 -5 -15 -9 3 -46 -28 -81 -68 -35 -39 -91 -83 -124 -97 -60 -25 -60 -25 -19 -61 26 -22 33 -40 20 -49 -27 -16 -136 6 -152 31 -6 10 3 13 20 7 64 -25 28 13 -39 41 -204 85 -178 352 47 471 83 44 64 52 -28 12z m-167 -169 c-12 -22 -22 -59 -22 -82 0 -50 -17 -52 -51 -6 -23 30 -19 43 26 90 58 61 80 60 47 -2z"/> <path d="M2649 3207 c6 -13 4 -27 -4 -30 -8 -4 5 -27 30 -51 58 -57 61 -9 3 57 -22 26 -36 37 -29 24z"/> <path d="M3613 3067 c-19 -72 -32 -135 -27 -140 4 -4 24 51 43 124 20 72 32 135 27 139 -4 5 -24 -51 -43 -123z"/> <path d="M3106 3079 c26 -45 27 -65 2 -160 -16 -60 -24 -121 -18 -135 5 -14 3 -22 -6 -16 -9 5 -40 -35 -71 -90 -77 -137 -237 -288 -370 -350 -167 -77 -188 -86 -243 -94 -27 -5 -9 -10 41 -11 56 -2 121 12 169 37 100 51 106 42 113 -148 7 -173 -13 -205 -84 -141 -74 67 -54 19 33 -80 115 -131 110 -147 126 391 2 56 13 77 52 94 28 13 50 40 50 61 0 39 46 91 63 73 21 -21 102 90 146 200 l47 115 55 -83 c49 -74 53 -95 44 -204 -15 -162 10 -156 -302 -65 -30 9 -34 3 -24 -30 7 -23 4 -111 -7 -197 -50 -377 -50 -351 -9 -330 20 11 58 42 83 69 l46 49 -36 148 c-57 237 -41 268 115 220 113 -34 112 -34 22 -221 -69 -146 -284 -371 -412 -434 -81 -39 -92 -41 -57 -11 l44 39 -63 57 c-35 32 -52 43 -38 25 14 -18 17 -38 7 -44 -10 -6 -46 29 -81 78 -68 98 -77 119 -38 97 14 -8 0 12 -30 44 -30 32 -70 78 -90 102 l-35 45 -287 -273 -286 -273 -54 32 c-87 53 -96 83 -56 189 20 53 39 112 43 131 4 19 13 44 20 56 7 11 34 96 60 189 55 200 56 199 -160 111 -149 -61 -179 -60 -159 1 6 21 3 38 -8 38 -27 0 -48 -218 -27 -290 l17 -60 26 50 c32 60 201 218 236 219 38 1 30 -73 -27 -249 -90 -281 -88 -277 -131 -238 -20 19 -37 25 -37 14 0 -12 41 -59 91 -105 472 -435 1430 -61 1638 639 74 250 30 549 -102 693 -47 50 -61 59 -41 26z m113 -195 c32 -113 24 -123 -19 -27 -44 96 -50 132 -21 113 11 -6 29 -45 40 -86z m-832 -861 c19 -20 69 -108 113 -195 l78 -158 -44 -23 c-91 -48 -454 -107 -454 -75 0 7 41 111 92 230 106 252 148 295 215 221z"/> <path d="M1739 2919 c-160 -165 -342 -519 -266 -519 20 0 155 279 153 314 -1 14 9 23 21 20 13 -2 23 11 23 30 0 18 9 41 18 50 11 9 12 4 2 -14 -11 -19 -1 -16 27 8 45 40 58 64 23 42 -37 -23 -20 24 23 62 42 38 42 38 28 -8 -8 -26 -15 -118 -15 -206 l-1 -159 -98 -42 c-125 -54 -116 -64 20 -24 58 17 107 28 109 24 2 -4 25 -37 51 -74 l48 -68 -72 -242 c-116 -395 -116 -377 -6 -274 103 97 114 113 51 80 -59 -31 -66 -13 -27 64 35 69 167 242 193 253 8 4 -26 49 -76 100 -139 143 -155 242 -49 308 43 27 56 76 21 76 -11 0 -20 -9 -20 -20 0 -11 -10 -20 -21 -20 -12 0 -15 11 -7 25 8 14 -5 8 -29 -13 -51 -46 -58 -68 -8 -30 30 22 31 22 10 -2 -14 -15 -26 -46 -27 -69 -2 -35 -4 -34 -18 9 -29 91 -21 238 20 344 50 133 53 133 -101 -25z"/> <path d="M2318 2988 c-37 -45 -42 -100 -11 -125 21 -18 24 -10 17 38 -5 33 3 73 16 89 14 17 20 30 15 30 -6 0 -22 -14 -37 -32z"/> </g> </svg> 